# Blender v2.79 (sub 0) OBJ File: ''
# www.blender.org
mtllib Tree.mtl
o Cube.001
v -0.000000 0.782151 -0.306044
v 0.306044 0.782151 -0.000000
v 0.000000 0.782151 0.306044
v 0.000000 -0.011930 0.000000
v 0.408078 4.473418 0.000000
v 0.000000 5.336306 0.000000
v -0.408078 4.473418 0.000000
v 0.000000 4.473418 0.408078
v 0.000000 4.473418 -0.408078
v 0.000000 1.484728 -0.824889
v 0.000000 1.484728 0.824889
v -0.824889 1.484728 0.000000
v 0.824889 1.484728 0.000000
v 0.000000 3.043992 -0.780875
v 0.000000 3.043992 0.780875
v -0.780875 3.043992 0.000000
v 0.780875 3.043992 0.000000
v 0.000000 3.459122 -0.692423
v 0.000000 3.459122 0.692423
v -0.692423 3.459122 0.000000
v 0.692423 3.459122 0.000000
v 0.978418 2.439790 0.000000
v -0.978418 2.439790 0.000000
v 0.000000 2.439790 0.978418
v 0.000000 2.439790 -0.978418
v 0.000000 2.018783 -1.078827
v 0.000000 2.018783 1.078827
v -1.078827 2.018783 0.000000
v 1.078827 2.018783 0.000000
v -0.306044 0.782151 0.000000
v -0.301954 0.047720 -0.000000
v -0.000000 0.047720 0.301954
v 0.301954 0.047720 0.000000
v 0.000000 0.047720 -0.301954
v 1.310591 1.569489 0.000000
v -1.310591 1.569489 0.000000
v 0.000000 1.569489 1.310591
v 0.000000 1.569489 -1.310591
v 1.029620 2.566020 0.000000
v -1.029620 2.566020 0.000000
v 0.000000 2.566020 1.029620
v 0.000000 2.566020 -1.029620
v 0.000000 3.552181 -0.778487
v 0.000000 3.552181 0.778487
v -0.778487 3.552181 0.000000
v 0.778487 3.552181 0.000000
v -0.226299 0.002983 -0.000000
v 0.000000 0.002983 -0.226299
v 0.226299 0.002983 0.000000
v -0.000000 0.002983 0.226299
v -0.132585 5.120584 0.000000
v 0.000000 5.120584 -0.132585
v 0.132585 5.120584 0.000000
v 0.000000 5.120584 0.132585
v 0.306059 4.473418 -0.306059
v 0.226465 0.047720 0.226465
v -0.306059 4.473418 0.306059
v -0.226465 0.047720 -0.226465
v 0.618666 1.484728 -0.618666
v 0.982943 1.569489 0.982943
v -0.618666 1.484728 0.618666
v -0.982943 1.569489 -0.982943
v 0.000000 1.519816 -1.203858
v 0.000000 1.519816 1.203858
v -1.203858 1.519816 0.000000
v 1.203858 1.519816 0.000000
v 0.618666 1.484728 0.618666
v -0.618666 1.484728 -0.618666
v 0.229533 0.782151 -0.229533
v -0.229533 0.782151 0.229533
v 0.437634 1.295186 -0.000000
v -0.437634 1.295186 0.000000
v 0.000000 1.295186 0.437634
v -0.000000 1.295186 -0.437634
v 0.585656 3.043992 -0.585656
v -0.585656 3.043992 0.585656
v 0.519317 3.459122 0.519317
v -0.519317 3.459122 -0.519317
v 0.000000 3.337986 -0.659773
v 0.000000 3.337986 0.659773
v -0.659773 3.337986 0.000000
v 0.659773 3.337986 0.000000
v 0.519317 3.459122 -0.519317
v -0.519317 3.459122 0.519317
v 0.583866 3.552181 0.583866
v -0.583866 3.552181 -0.583866
v 0.000000 3.499740 -0.768702
v 0.000000 3.499740 0.768702
v -0.768702 3.499740 0.000000
v 0.768702 3.499740 0.000000
v 0.772215 2.566020 0.772215
v -0.772215 2.566020 -0.772215
v 0.733813 2.439790 -0.733813
v -0.733813 2.439790 0.733813
v 1.042203 2.485687 0.000000
v -1.042203 2.485687 0.000000
v 0.000000 2.485687 1.042203
v 0.000000 2.485687 -1.042203
v 0.733813 2.439790 0.733813
v -0.733813 2.439790 -0.733813
v 0.809121 2.018783 -0.809121
v -0.809121 2.018783 0.809121
v 0.000000 2.320199 -0.952536
v 0.000000 2.320199 0.952536
v -0.952536 2.320199 0.000000
v 0.952536 2.320199 0.000000
v 0.229533 0.782151 0.229533
v -0.229533 0.782151 -0.229533
v 0.226465 0.047720 -0.226465
v -0.226465 0.047720 0.226465
v -0.303142 0.261153 0.000000
v 0.000000 0.261153 0.303142
v 0.303142 0.261153 0.000000
v 0.000000 0.261153 -0.303142
v 0.809121 2.018783 0.809121
v -0.809121 2.018783 -0.809121
v 0.982943 1.569489 -0.982943
v -0.982943 1.569489 0.982943
v 1.237958 1.710295 0.000000
v -1.237958 1.710295 0.000000
v 0.000000 1.710295 1.237958
v 0.000000 1.710295 -1.237958
v 0.772215 2.566020 -0.772215
v -0.772215 2.566020 0.772215
v 0.585656 3.043992 0.585656
v -0.585656 3.043992 -0.585656
v 0.942050 2.734288 0.000000
v -0.942050 2.734288 0.000000
v 0.000000 2.734288 0.942050
v 0.000000 2.734288 -0.942050
v 0.583866 3.552181 -0.583866
v -0.583866 3.552181 0.583866
v 0.306059 4.473418 0.306059
v -0.306059 4.473418 -0.306059
v 0.000000 3.811665 -0.674154
v 0.000000 3.811665 0.674154
v -0.674154 3.811665 0.000000
v 0.674154 3.811665 0.000000
v -0.167678 0.014581 0.167678
v -0.167678 0.014581 -0.167678
v 0.167678 0.014581 0.167678
v 0.167678 0.014581 -0.167678
v -0.149611 4.952800 0.149611
v -0.149611 4.952800 -0.149611
v 0.149611 4.952800 -0.149611
v 0.149611 4.952800 0.149611
v 0.902893 1.519816 -0.902893
v 0.902893 1.519816 0.902893
v -0.902893 1.519816 0.902893
v -0.902893 1.519816 -0.902893
v 0.328225 1.295185 0.328225
v -0.328225 1.295185 -0.328225
v 0.328225 1.295185 -0.328225
v -0.328225 1.295185 0.328225
v 0.494829 3.337986 -0.494829
v -0.494829 3.337986 0.494829
v 0.494829 3.337986 0.494829
v -0.494829 3.337986 -0.494829
v 0.576527 3.499740 -0.576527
v -0.576527 3.499740 0.576527
v 0.576527 3.499740 0.576527
v -0.576527 3.499740 -0.576527
v 0.781652 2.485687 0.781652
v -0.781652 2.485687 -0.781652
v 0.781652 2.485687 -0.781652
v -0.781652 2.485687 0.781652
v 0.714402 2.320199 0.714402
v -0.714402 2.320199 -0.714402
v 0.714402 2.320199 -0.714402
v -0.714402 2.320199 0.714402
v 0.227357 0.261153 0.227357
v -0.227357 0.261153 -0.227357
v 0.227357 0.261153 -0.227357
v -0.227357 0.261153 0.227357
v 0.928468 1.710295 0.928468
v -0.928468 1.710295 -0.928468
v 0.928468 1.710295 -0.928468
v -0.928468 1.710295 0.928468
v 0.706538 2.734288 -0.706538
v -0.706538 2.734288 0.706538
v 0.706538 2.734288 0.706538
v -0.706538 2.734288 -0.706538
v 0.505616 3.811665 -0.505616
v -0.505616 3.811665 0.505616
v 0.505616 3.811665 0.505616
v -0.505616 3.811665 -0.505616
vn -0.3162 -0.0053 -0.9487
vn -0.3073 -0.2364 -0.9218
vn 0.3073 -0.2364 -0.9218
vn 0.3162 -0.0053 -0.9487
vn 0.9487 -0.0053 -0.3162
vn 0.9218 -0.2364 -0.3073
vn 0.9218 -0.2364 0.3073
vn 0.9487 -0.0053 0.3162
vn 0.3162 -0.0053 0.9487
vn 0.3073 -0.2364 0.9218
vn -0.3073 -0.2364 0.9218
vn -0.3162 -0.0053 0.9487
vn -0.0786 -0.9938 -0.0786
vn 0.0786 -0.9938 -0.0786
vn 0.0786 -0.9938 0.0786
vn -0.0786 -0.9938 0.0786
vn -0.9487 -0.0053 0.3162
vn -0.9218 -0.2364 0.3073
vn -0.9218 -0.2364 -0.3073
vn -0.9487 -0.0053 -0.3162
vn -0.4355 -0.8832 0.1742
vn -0.4355 -0.8832 -0.1742
vn 0.1742 -0.8832 0.4355
vn -0.1742 -0.8832 0.4355
vn 0.4355 -0.8832 -0.1742
vn 0.4355 -0.8832 0.1742
vn -0.1742 -0.8832 -0.4355
vn 0.1742 -0.8832 -0.4355
vn 0.8864 0.3564 0.2955
vn 0.8864 0.3564 -0.2955
vn 0.8753 0.3776 -0.3023
vn 0.8753 0.3776 0.3023
vn 0.6191 0.4831 -0.6191
vn -0.6191 0.4831 -0.6191
vn -0.6191 0.4831 0.6191
vn 0.6191 0.4831 0.6191
vn -0.8864 0.3564 -0.2955
vn -0.8864 0.3564 0.2955
vn -0.8753 0.3776 0.3023
vn -0.8753 0.3776 -0.3023
vn -0.2955 0.3564 0.8864
vn 0.2955 0.3564 0.8864
vn 0.3023 0.3776 0.8753
vn -0.3023 0.3776 0.8753
vn 0.2955 0.3564 -0.8864
vn -0.2955 0.3564 -0.8864
vn -0.3023 0.3776 -0.8753
vn 0.3023 0.3776 -0.8753
vn 0.1450 -0.8887 -0.4350
vn -0.1450 -0.8887 -0.4350
vn -0.0307 -0.9953 -0.0922
vn 0.0307 -0.9953 -0.0922
vn -0.1450 -0.8887 0.4350
vn 0.1450 -0.8887 0.4350
vn 0.0307 -0.9953 0.0922
vn -0.0307 -0.9953 0.0922
vn -0.4350 -0.8887 -0.1450
vn -0.4350 -0.8887 0.1450
vn -0.0922 -0.9953 0.0307
vn -0.0922 -0.9953 -0.0307
vn 0.4350 -0.8887 0.1450
vn 0.4350 -0.8887 -0.1450
vn 0.0922 -0.9953 -0.0307
vn 0.0922 -0.9953 0.0307
vn 0.2836 0.4427 -0.8507
vn -0.2836 0.4427 -0.8507
vn -0.2945 0.3640 -0.8836
vn 0.2945 0.3640 -0.8836
vn -0.2836 0.4427 0.8507
vn 0.2836 0.4427 0.8507
vn 0.2945 0.3640 0.8836
vn -0.2945 0.3640 0.8836
vn -0.8507 0.4427 -0.2836
vn -0.8507 0.4427 0.2836
vn -0.8836 0.3640 0.2945
vn -0.8836 0.3640 -0.2945
vn 0.8507 0.4427 0.2836
vn 0.8507 0.4427 -0.2836
vn 0.8836 0.3640 -0.2945
vn 0.8836 0.3640 0.2945
vn 0.3064 -0.2477 -0.9191
vn -0.3064 -0.2477 -0.9191
vn -0.1548 -0.8720 -0.4643
vn 0.1548 -0.8720 -0.4643
vn -0.3064 -0.2477 0.9191
vn 0.3064 -0.2477 0.9191
vn 0.1548 -0.8720 0.4643
vn -0.1548 -0.8720 0.4643
vn -0.9191 -0.2477 -0.3064
vn -0.9191 -0.2477 0.3064
vn -0.4643 -0.8720 0.1548
vn -0.4643 -0.8720 -0.1548
vn 0.9191 -0.2477 0.3064
vn 0.9191 -0.2477 -0.3064
vn 0.4643 -0.8720 -0.1548
vn 0.4643 -0.8720 0.1548
vn 0.9293 -0.2011 0.3098
vn 0.9293 -0.2011 -0.3098
vn 0.5733 -0.7967 -0.1911
vn 0.5733 -0.7967 0.1911
vn -0.9293 -0.2011 -0.3098
vn -0.9293 -0.2011 0.3098
vn -0.5733 -0.7967 0.1911
vn -0.5733 -0.7967 -0.1911
vn -0.3098 -0.2011 0.9293
vn 0.3098 -0.2011 0.9293
vn 0.1911 -0.7967 0.5733
vn -0.1911 -0.7967 0.5733
vn 0.3098 -0.2011 -0.9293
vn -0.3098 -0.2011 -0.9293
vn -0.1911 -0.7967 -0.5733
vn 0.1911 -0.7967 -0.5733
vn 0.2840 0.4396 -0.8521
vn -0.2840 0.4396 -0.8521
vn -0.2939 0.3694 -0.8816
vn 0.2939 0.3694 -0.8816
vn -0.2840 0.4396 0.8521
vn 0.2840 0.4396 0.8521
vn 0.2939 0.3694 0.8816
vn -0.2939 0.3694 0.8816
vn -0.8521 0.4396 -0.2840
vn -0.8521 0.4396 0.2840
vn -0.8816 0.3694 0.2939
vn -0.8816 0.3694 -0.2939
vn 0.8521 0.4396 0.2840
vn 0.8521 0.4396 -0.2840
vn 0.8816 0.3694 -0.2939
vn 0.8816 0.3694 0.2939
vn 0.4178 -0.8978 0.1393
vn 0.4178 -0.8978 -0.1393
vn -0.4178 -0.8978 -0.1393
vn -0.4178 -0.8978 0.1393
vn -0.1393 -0.8978 0.4178
vn 0.1393 -0.8978 0.4178
vn 0.1393 -0.8978 -0.4178
vn -0.1393 -0.8978 -0.4178
vn 0.9384 0.1470 0.3128
vn 0.9384 0.1470 -0.3128
vn -0.9384 0.1470 -0.3128
vn -0.9384 0.1470 0.3128
vn -0.3128 0.1470 0.9384
vn 0.3128 0.1470 0.9384
vn 0.3128 0.1470 -0.9384
vn -0.3128 0.1470 -0.9384
vn 0.3114 -0.1743 -0.9342
vn -0.3114 -0.1743 -0.9342
vn -0.3114 -0.1743 0.9342
vn 0.3114 -0.1743 0.9342
vn -0.9342 -0.1743 -0.3114
vn -0.9342 -0.1743 0.3114
vn 0.9342 -0.1743 0.3114
vn 0.9342 -0.1743 -0.3114
usemtl brown
s off
f 1//1 114//1 172//1 108//1
f 1//2 108//2 152//2 74//2
f 1//3 74//3 153//3 69//3
f 1//4 69//4 173//4 114//4
f 2//5 113//5 173//5 69//5
f 2//6 69//6 153//6 71//6
f 2//7 71//7 151//7 107//7
f 2//8 107//8 171//8 113//8
f 3//9 112//9 171//9 107//9
f 3//10 107//10 151//10 73//10
f 3//11 73//11 154//11 70//11
f 3//12 70//12 174//12 112//12
f 4//13 47//13 140//13 48//13
f 4//14 48//14 142//14 49//14
f 4//15 49//15 141//15 50//15
f 4//16 50//16 139//16 47//16
f 30//17 111//17 174//17 70//17
f 30//18 70//18 154//18 72//18
f 30//19 72//19 152//19 108//19
f 30//20 108//20 172//20 111//20
f 31//21 47//21 139//21 110//21
f 31//17 110//17 174//17 111//17
f 31//20 111//20 172//20 58//20
f 31//22 58//22 140//22 47//22
f 32//23 50//23 141//23 56//23
f 32//9 56//9 171//9 112//9
f 32//12 112//12 174//12 110//12
f 32//24 110//24 139//24 50//24
f 33//25 49//25 142//25 109//25
f 33//5 109//5 173//5 113//5
f 33//8 113//8 171//8 56//8
f 33//26 56//26 141//26 49//26
f 34//27 48//27 140//27 58//27
f 34//1 58//1 172//1 114//1
f 34//4 114//4 173//4 109//4
f 34//28 109//28 142//28 48//28
usemtl green
f 5//29 133//29 185//29 138//29
f 5//30 138//30 183//30 55//30
f 5//31 55//31 145//31 53//31
f 5//32 53//32 146//32 133//32
f 6//33 53//33 145//33 52//33
f 6//34 52//34 144//34 51//34
f 6//35 51//35 143//35 54//35
f 6//36 54//36 146//36 53//36
f 7//37 134//37 186//37 137//37
f 7//38 137//38 184//38 57//38
f 7//39 57//39 143//39 51//39
f 7//40 51//40 144//40 134//40
f 8//41 57//41 184//41 136//41
f 8//42 136//42 185//42 133//42
f 8//43 133//43 146//43 54//43
f 8//44 54//44 143//44 57//44
f 9//45 55//45 183//45 135//45
f 9//46 135//46 186//46 134//46
f 9//47 134//47 144//47 52//47
f 9//48 52//48 145//48 55//48
f 10//49 59//49 153//49 74//49
f 10//50 74//50 152//50 68//50
f 10//51 68//51 150//51 63//51
f 10//52 63//52 147//52 59//52
f 11//53 61//53 154//53 73//53
f 11//54 73//54 151//54 67//54
f 11//55 67//55 148//55 64//55
f 11//56 64//56 149//56 61//56
f 12//57 68//57 152//57 72//57
f 12//58 72//58 154//58 61//58
f 12//59 61//59 149//59 65//59
f 12//60 65//60 150//60 68//60
f 13//61 67//61 151//61 71//61
f 13//62 71//62 153//62 59//62
f 13//63 59//63 147//63 66//63
f 13//64 66//64 148//64 67//64
f 14//65 75//65 179//65 130//65
f 14//66 130//66 182//66 126//66
f 14//67 126//67 158//67 79//67
f 14//68 79//68 155//68 75//68
f 15//69 76//69 180//69 129//69
f 15//70 129//70 181//70 125//70
f 15//71 125//71 157//71 80//71
f 15//72 80//72 156//72 76//72
f 16//73 126//73 182//73 128//73
f 16//74 128//74 180//74 76//74
f 16//75 76//75 156//75 81//75
f 16//76 81//76 158//76 126//76
f 17//77 125//77 181//77 127//77
f 17//78 127//78 179//78 75//78
f 17//79 75//79 155//79 82//79
f 17//80 82//80 157//80 125//80
f 18//81 83//81 155//81 79//81
f 18//82 79//82 158//82 78//82
f 18//83 78//83 162//83 87//83
f 18//84 87//84 159//84 83//84
f 19//85 84//85 156//85 80//85
f 19//86 80//86 157//86 77//86
f 19//87 77//87 161//87 88//87
f 19//88 88//88 160//88 84//88
f 20//89 78//89 158//89 81//89
f 20//90 81//90 156//90 84//90
f 20//91 84//91 160//91 89//91
f 20//92 89//92 162//92 78//92
f 21//93 77//93 157//93 82//93
f 21//94 82//94 155//94 83//94
f 21//95 83//95 159//95 90//95
f 21//96 90//96 161//96 77//96
f 22//97 99//97 167//97 106//97
f 22//98 106//98 169//98 93//98
f 22//99 93//99 165//99 95//99
f 22//100 95//100 163//100 99//100
f 23//101 100//101 168//101 105//101
f 23//102 105//102 170//102 94//102
f 23//103 94//103 166//103 96//103
f 23//104 96//104 164//104 100//104
f 24//105 94//105 170//105 104//105
f 24//106 104//106 167//106 99//106
f 24//107 99//107 163//107 97//107
f 24//108 97//108 166//108 94//108
f 25//109 93//109 169//109 103//109
f 25//110 103//110 168//110 100//110
f 25//111 100//111 164//111 98//111
f 25//112 98//112 165//112 93//112
f 26//113 101//113 177//113 122//113
f 26//114 122//114 176//114 116//114
f 26//115 116//115 168//115 103//115
f 26//116 103//116 169//116 101//116
f 27//117 102//117 178//117 121//117
f 27//118 121//118 175//118 115//118
f 27//119 115//119 167//119 104//119
f 27//120 104//120 170//120 102//120
f 28//121 116//121 176//121 120//121
f 28//122 120//122 178//122 102//122
f 28//123 102//123 170//123 105//123
f 28//124 105//124 168//124 116//124
f 29//125 115//125 175//125 119//125
f 29//126 119//126 177//126 101//126
f 29//127 101//127 169//127 106//127
f 29//128 106//128 167//128 115//128
f 35//129 60//129 148//129 66//129
f 35//130 66//130 147//130 117//130
f 35//126 117//126 177//126 119//126
f 35//125 119//125 175//125 60//125
f 36//131 62//131 150//131 65//131
f 36//132 65//132 149//132 118//132
f 36//122 118//122 178//122 120//122
f 36//121 120//121 176//121 62//121
f 37//133 118//133 149//133 64//133
f 37//134 64//134 148//134 60//134
f 37//118 60//118 175//118 121//118
f 37//117 121//117 178//117 118//117
f 38//135 117//135 147//135 63//135
f 38//136 63//136 150//136 62//136
f 38//114 62//114 176//114 122//114
f 38//113 122//113 177//113 117//113
f 39//137 91//137 163//137 95//137
f 39//138 95//138 165//138 123//138
f 39//78 123//78 179//78 127//78
f 39//77 127//77 181//77 91//77
f 40//139 92//139 164//139 96//139
f 40//140 96//140 166//140 124//140
f 40//74 124//74 180//74 128//74
f 40//73 128//73 182//73 92//73
f 41//141 124//141 166//141 97//141
f 41//142 97//142 163//142 91//142
f 41//70 91//70 181//70 129//70
f 41//69 129//69 180//69 124//69
f 42//143 123//143 165//143 98//143
f 42//144 98//144 164//144 92//144
f 42//66 92//66 182//66 130//66
f 42//65 130//65 179//65 123//65
f 43//145 131//145 159//145 87//145
f 43//146 87//146 162//146 86//146
f 43//46 86//46 186//46 135//46
f 43//45 135//45 183//45 131//45
f 44//147 132//147 160//147 88//147
f 44//148 88//148 161//148 85//148
f 44//42 85//42 185//42 136//42
f 44//41 136//41 184//41 132//41
f 45//149 86//149 162//149 89//149
f 45//150 89//150 160//150 132//150
f 45//38 132//38 184//38 137//38
f 45//37 137//37 186//37 86//37
f 46//151 85//151 161//151 90//151
f 46//152 90//152 159//152 131//152
f 46//30 131//30 183//30 138//30
f 46//29 138//29 185//29 85//29
